<svg width="48" height="48" viewBox="0 0 48 48" fill="none" xmlns="http://www.w3.org/2000/svg">
<g clip-path="url(#clip0_55_134)">
<path d="M3.8399 4.31995C3.04459 4.31995 2.3999 4.96466 2.3999 5.75995C2.3999 6.55523 3.04459 7.19995 3.8399 7.19995H8.4299L13.3799 30.5549C13.5757 31.4341 14.1519 32.1658 14.8799 32.16H38.8799C39.6407 32.1705 40.3404 31.4808 40.3404 30.72C40.3404 29.9591 39.6407 29.2692 38.8799 29.28H16.0499L15.4349 26.3999H40.7999C41.4446 26.3951 42.0538 25.9041 42.1949 25.2749L45.5549 10.8749C45.7421 10.0392 45.0163 9.12609 44.1599 9.11995H11.7899L11.0099 5.45995C10.8736 4.82054 10.2537 4.31927 9.5999 4.31995H3.8399ZM12.3899 11.9999H21.1199V16.3199H13.3049L12.3899 11.9999ZM23.9999 11.9999H30.7199V16.3199H23.9999V11.9999ZM33.5999 11.9999H42.3449L41.3399 16.3199H33.5999V11.9999ZM13.9199 19.1999H21.1199V23.5199H14.8349L13.9199 19.1999ZM23.9999 19.1999H30.7199V23.5199H23.9999V19.1999ZM33.5999 19.1999H40.6649L39.6599 23.5199H33.5999V19.1999ZM19.6799 34.08C17.046 34.08 14.8799 36.246 14.8799 38.88C14.8799 41.5139 17.046 43.68 19.6799 43.68C22.3138 43.68 24.4799 41.5139 24.4799 38.88C24.4799 36.2461 22.3138 34.08 19.6799 34.08ZM34.0799 34.08C31.446 34.08 29.2799 36.246 29.2799 38.88C29.2799 41.5139 31.446 43.68 34.0799 43.68C36.7138 43.68 38.8799 41.5139 38.8799 38.88C38.8799 36.2461 36.7138 34.08 34.0799 34.08ZM19.6799 36.96C20.7574 36.96 21.5999 37.8025 21.5999 38.88C21.5999 39.9574 20.7574 40.8 19.6799 40.8C18.6025 40.8 17.7599 39.9574 17.7599 38.88C17.7599 37.8026 18.6025 36.96 19.6799 36.96ZM34.0799 36.96C35.1574 36.96 35.9999 37.8025 35.9999 38.88C35.9999 39.9574 35.1574 40.8 34.0799 40.8C33.0025 40.8 32.1599 39.9574 32.1599 38.88C32.1599 37.8026 33.0025 36.96 34.0799 36.96Z" fill="#151313"/>
</g>
<defs>
<clipPath id="clip0_55_134">
<rect width="48" height="48" fill="white"/>
</clipPath>
</defs>
</svg>
