<svg width="100" height="100" viewBox="0 0 100 100" fill="none" xmlns="http://www.w3.org/2000/svg">
<g clip-path="url(#clip0_83_196)">
<path d="M42.674 46.4091C40.915 46.4091 39.489 47.8351 39.489 49.5941V72.5281C39.489 74.2871 40.915 75.7131 42.674 75.7131C44.433 75.7131 45.859 74.2871 45.859 72.5281V49.5941C45.859 47.8341 44.433 46.4091 42.674 46.4091Z" fill="#151313"/>
<path d="M58.6 46.4091C56.841 46.4091 55.415 47.8351 55.415 49.5941V72.5281C55.415 74.2871 56.841 75.7131 58.6 75.7131C60.359 75.7131 61.785 74.2871 61.785 72.5281V49.5941C61.786 47.8341 60.36 46.4091 58.6 46.4091Z" fill="#151313"/>
<path d="M83.156 80.2531V29.8051H18.204V80.2531C18.204 88.3981 24.806 95.0001 32.95 95.0001H68.41C76.554 95.0001 83.156 88.3981 83.156 80.2531ZM24.574 80.2531V36.1761H76.786V80.2531C76.786 84.8721 73.029 88.6291 68.41 88.6291H32.95C28.332 88.6291 24.574 84.8721 24.574 80.2531Z" fill="#151313"/>
<path d="M89.179 19.652C89.179 17.893 87.753 16.467 85.994 16.467H67.519V13.505C67.519 8.895 63.6 5 58.962 5H42.398C37.713 5 33.755 8.895 33.755 13.505V16.467H14.006C12.247 16.467 10.821 17.893 10.821 19.652C10.821 21.411 12.247 22.837 14.006 22.837H85.993C87.753 22.838 89.179 21.412 89.179 19.652ZM61.148 16.467H40.126V13.505C40.126 12.448 41.273 11.37 42.399 11.37H58.962C60.066 11.37 61.149 12.427 61.149 13.505L61.148 16.467Z" fill="#151313"/>
</g>
<defs>
<clipPath id="clip0_83_196">
<rect width="100" height="100" fill="white"/>
</clipPath>
</defs>
</svg>
