<svg width="48" height="48" viewBox="0 0 48 48" fill="none" xmlns="http://www.w3.org/2000/svg">
<g id="noun-journal-430011 1">
<path id="Vector" d="M36.4441 5H11.5555C10.6976 5 10 5.71904 10 6.60233V41.3977C10 42.281 10.698 43 11.5555 43H36.4445C37.3024 43 38 42.281 38 41.3977V6.60233C37.9996 5.71904 37.302 5 36.4441 5ZM18.6661 34.2119C18.1098 34.2119 17.6418 33.7305 17.6418 33.1567C17.6418 32.5846 18.1094 32.1016 18.6661 32.1016C19.2227 32.1016 19.6912 32.5846 19.6912 33.1567C19.6912 33.7305 19.2223 34.2119 18.6661 34.2119ZM22 33.1567C22 31.2635 20.5048 29.7232 18.6665 29.7232C17.4159 29.7232 16.2855 30.4418 15.7194 31.5544H13.111V25.6023H15.7194C16.2855 26.7149 17.4159 27.4339 18.6665 27.4339C20.5048 27.4339 22 25.8937 22 24C22 22.1063 20.5048 20.5665 18.6665 20.5665C17.4159 20.5665 16.2855 21.2851 15.7194 22.3977H13.111V16.4456H15.7194C16.2855 17.5582 17.4159 18.2768 18.6665 18.2768C20.5048 18.2768 22 16.7365 22 14.8433C22 12.9496 20.5048 11.4093 18.6665 11.4093C17.4159 11.4093 16.2855 12.128 15.7194 13.2405H13.111V8.20467H34.889V39.7949H13.111V34.7591H15.7194C16.2855 35.8712 17.4159 36.5902 18.6665 36.5902C20.5048 36.5902 22 35.05 22 33.1567ZM18.6661 25.0551C18.1098 25.0551 17.6418 24.5721 17.6418 24C17.6418 23.4279 18.1094 22.9449 18.6661 22.9449C19.2227 22.9449 19.6912 23.4279 19.6912 24C19.6912 24.5721 19.2223 25.0551 18.6661 25.0551ZM18.6661 15.8988C18.1098 15.8988 17.6418 15.415 17.6418 14.8437C17.6418 14.2716 18.1094 13.7877 18.6661 13.7877C19.2227 13.7877 19.6912 14.2716 19.6912 14.8437C19.6912 15.415 19.2223 15.8988 18.6661 15.8988Z" fill="#FEFEFE"/>
</g>
</svg>
