<svg width="48" height="48" viewBox="0 0 48 48" fill="none" xmlns="http://www.w3.org/2000/svg">
<g clip-path="url(#clip0_57_143)">
<path d="M10.4474 40.8213C14.2888 43.9112 19.07 45.5971 23.9999 45.5999C28.9292 45.6192 33.7134 43.933 37.5414 40.8274C38.4072 40.1293 39.2185 39.366 39.9681 38.5443C42.8767 35.3459 44.7578 31.3477 45.3677 27.0677C45.9775 22.7878 45.2881 18.4233 43.3886 14.5398C41.4891 10.6562 38.4672 7.43258 34.7143 5.2865C30.9613 3.14042 26.6504 2.1708 22.3401 2.50326C18.0297 2.83572 13.9184 4.45495 10.539 7.15115C7.15961 9.84735 4.66775 13.4963 3.38627 17.6252C2.1048 21.7541 2.09277 26.1727 3.35175 30.3085C4.61073 34.4443 7.0827 38.1067 10.4474 40.8213ZM23.9999 5.27994C27.5113 5.27883 30.9522 6.26568 33.9293 8.12768C36.9064 9.98969 39.2996 12.6517 40.8353 15.8095C42.371 18.9674 42.9873 22.4935 42.6137 25.985C42.2401 29.4765 40.8917 32.7925 38.7227 35.5539C37.5722 30.7953 31.4181 27.1583 23.9999 27.1583C16.5769 27.1583 10.426 30.7958 9.27674 35.5548C7.10782 32.7933 5.75957 29.4773 5.38607 25.9857C5.01256 22.4942 5.62888 18.968 7.16459 15.8102C8.7003 12.6523 11.0934 9.99023 14.0705 8.12813C17.0475 6.26602 20.4884 5.27903 23.9999 5.27994Z" fill="#151313"/>
<path d="M25.6118 23.8123C29.384 22.9218 31.7201 19.1419 30.8296 15.3697C29.9391 11.5975 26.1593 9.2614 22.3871 10.1519C18.6149 11.0424 16.2788 14.8223 17.1693 18.5945C18.0598 22.3667 21.8396 24.7027 25.6118 23.8123Z" fill="#151313"/>
</g>
<defs>
<clipPath id="clip0_57_143">
<rect width="48" height="48" fill="white"/>
</clipPath>
</defs>
</svg>
