<svg width="48" height="48" viewBox="0 0 48 48" fill="none" xmlns="http://www.w3.org/2000/svg">
<g clip-path="url(#clip0_55_139)">
<path d="M37.7113 38.1103L32.3326 30.5181L32.6947 30.1677C34.0187 28.9165 35.0719 27.407 35.7892 25.7324C36.5064 24.0579 36.8724 22.2539 36.8645 20.4323C36.8645 17.7756 36.0767 15.1786 34.6008 12.9697C33.1248 10.7608 31.027 9.03913 28.5726 8.02248C26.1181 7.00582 23.4174 6.73982 20.8118 7.2581C18.2062 7.77639 15.8128 9.05569 13.9342 10.9342C12.0557 12.8128 10.7764 15.2062 10.2581 17.8118C9.73982 20.4174 10.0058 23.1181 11.0225 25.5726C12.0391 28.027 13.7608 30.1248 15.9697 31.6008C18.1786 33.0767 20.7756 33.8645 23.4323 33.8645C25.3511 33.8676 27.2478 33.4552 28.9921 32.6556L29.4301 32.4571L34.8497 40.131C35.1252 40.5005 35.5321 40.7501 35.9864 40.8284C36.4406 40.9066 36.9076 40.8075 37.2909 40.5515C37.6702 40.2834 37.9276 39.8757 38.0065 39.4179C38.0853 38.9602 37.9792 38.4898 37.7113 38.1103ZM23.4323 30.3605C21.4687 30.3605 19.5491 29.7782 17.9165 28.6873C16.2838 27.5963 15.0113 26.0458 14.2598 24.2316C13.5084 22.4175 13.3118 20.4213 13.6948 18.4954C14.0779 16.5695 15.0235 14.8005 16.412 13.412C17.8005 12.0235 19.5695 11.0779 21.4954 10.6948C23.4213 10.3118 25.4175 10.5084 27.2316 11.2598C29.0458 12.0113 30.5963 13.2838 31.6873 14.9165C32.7782 16.5491 33.3605 18.4687 33.3605 20.4323C33.3605 23.0654 32.3145 25.5907 30.4526 27.4526C28.5907 29.3145 26.0654 30.3605 23.4323 30.3605Z" fill="#151313"/>
</g>
<defs>
<clipPath id="clip0_55_139">
<rect width="48" height="48" fill="white"/>
</clipPath>
</defs>
</svg>
