<svg width="48" height="48" viewBox="0 0 48 48" fill="none" xmlns="http://www.w3.org/2000/svg">
<g id="noun-stationery-1577298 1">
<g id="Group">
<path id="Vector" d="M24.4954 2.40003C23.9298 2.40594 23.385 2.77672 23.1729 3.30003L21.2493 8.10003C21.18 8.27109 21.1441 8.45553 21.1441 8.64003V18.18L17.7327 5.38503C17.5594 4.7317 16.8738 4.25536 16.1998 4.32003C14.8388 4.63522 13.448 5.04513 12.0821 5.415C11.3556 5.60967 10.87 6.44353 11.0602 7.17L11.1804 7.65L9.21177 8.205C8.48416 8.40569 8.00471 9.24851 8.20488 9.975L10.2036 17.19C10.3826 17.9399 11.2461 18.4494 11.9906 18.2446C12.7352 18.0397 13.2151 17.1605 12.9838 16.425L11.3758 10.59L11.9319 10.425L14.3965 19.68C14.0512 19.6799 13.6794 19.68 13.3445 19.68C12.54 19.7558 11.9037 20.6151 12.0671 21.405L16.8911 44.445C17.0216 45.0898 17.6447 45.5993 18.3038 45.6H31.7539C32.413 45.6 33.0361 45.0898 33.1666 44.445L37.9756 21.405C38.1438 20.5727 37.4136 19.681 36.5629 19.68H36.3976L39.8391 7.47C40.0472 6.73568 39.5567 5.87882 38.8172 5.685C38.8172 5.685 33.3581 4.31281 33.2117 4.32003C32.6157 4.35392 32.065 4.7962 31.9042 5.37003L27.8767 19.665V8.64003C27.8767 8.45553 27.8408 8.27109 27.7715 8.10003L25.8479 3.30003C25.632 2.76745 25.0709 2.39407 24.4954 2.40003ZM34.2937 7.50003L36.6681 8.11503L33.392 19.68H32.4753C32.9367 19.3744 33.1923 18.7866 33.1007 18.2414C33.0092 17.6963 32.5755 17.2238 32.0395 17.085L31.6187 16.98L32.1296 15.195L32.6105 15.315C33.354 15.5364 34.2318 15.0387 34.4219 14.2878C34.612 13.537 34.0765 12.6827 33.3169 12.525L32.9111 12.42L33.407 10.65L33.8879 10.77C34.6197 10.9586 35.4574 10.4655 35.6463 9.73506C35.8351 9.00462 35.3411 8.1685 34.6093 7.98003L34.1885 7.87503L34.2937 7.50003ZM15.3132 7.515L18.1535 18.21L17.0715 18.495L14.2161 7.815L15.3132 7.515ZM24.5104 7.71L24.8861 8.64H24.1347L24.5104 7.71ZM24.0295 11.52H24.9913V19.68H24.0295V11.52ZM15.2531 22.56H34.7896L30.5817 42.72H19.476L15.2531 22.56Z" fill="#FEFEFE"/>
</g>
</g>
</svg>
